<mxfile host="app.diagrams.net" modified="2024-03-07T07:55:36.839Z" agent="Mozilla/5.0 (Windows NT 10.0; Win64; x64) AppleWebKit/537.36 (KHTML, like Gecko) Chrome/122.0.0.0 Safari/537.36" etag="02nE-oBaxDPJtSuOMFQq" version="23.1.7" type="device">
  <diagram name="페이지-1" id="f38rxreJfLreidd-TojT">
    <mxGraphModel dx="1674" dy="746" grid="1" gridSize="10" guides="1" tooltips="1" connect="1" arrows="1" fold="1" page="1" pageScale="1" pageWidth="827" pageHeight="1169" math="0" shadow="0">
      <root>
        <mxCell id="0" />
        <mxCell id="1" parent="0" />
        <mxCell id="aHnn8lH_rIX_LdHpCdMD-1" value="" style="shape=process;whiteSpace=wrap;html=1;backgroundOutline=1;" vertex="1" parent="1">
          <mxGeometry x="140" y="70" width="450" height="350" as="geometry" />
        </mxCell>
        <mxCell id="aHnn8lH_rIX_LdHpCdMD-2" value="Actor" style="shape=umlActor;verticalLabelPosition=bottom;verticalAlign=top;html=1;outlineConnect=0;" vertex="1" parent="1">
          <mxGeometry x="250" y="350" width="30" height="70" as="geometry" />
        </mxCell>
        <mxCell id="aHnn8lH_rIX_LdHpCdMD-3" value="" style="ellipse;shape=cloud;whiteSpace=wrap;html=1;" vertex="1" parent="1">
          <mxGeometry x="230" y="120" width="120" height="80" as="geometry" />
        </mxCell>
        <mxCell id="aHnn8lH_rIX_LdHpCdMD-4" value="" style="ellipse;shape=cloud;whiteSpace=wrap;html=1;" vertex="1" parent="1">
          <mxGeometry x="360" y="170" width="160" height="110" as="geometry" />
        </mxCell>
        <mxCell id="aHnn8lH_rIX_LdHpCdMD-5" value="" style="ellipse;whiteSpace=wrap;html=1;aspect=fixed;" vertex="1" parent="1">
          <mxGeometry x="460" y="110" width="40" height="40" as="geometry" />
        </mxCell>
      </root>
    </mxGraphModel>
  </diagram>
</mxfile>
